<svg xmlns="http://www.w3.org/2000/svg" viewBox="0 0 1600 900"><path fill="#fff" d="M0 0h1600v900H0z"/><path fill="#a1a1a1" d="M957 450L539 900h857z"/><path d="M957 450l-84.1 450H1396z"/><path fill="#9b9b9b" d="M-60 900l458-238 418 238z"/><path fill="#161616" d="M337 900l61-238 418 238z"/><path fill="#969696" d="M1203 546l349 354H876z"/><path fill="#252525" d="M1203 546l349 354h-390z"/><path fill="#909090" d="M641 695l245 205H367z"/><path fill="#353535" d="M587 900l54-205 245 205z"/><path fill="#8b8b8b" d="M1710 900l-309-268-305 268z"/><path fill="#464646" d="M1710 900l-309-268-36 268z"/><path fill="#858585" d="M1210 900L971 687 725 900z"/><path fill="#575757" d="M943 900h267L971 687z"/></svg>